<mxfile host="app.diagrams.net" modified="2023-09-06T18:54:39.963Z" agent="Mozilla/5.0 (Windows NT 10.0; Win64; x64) AppleWebKit/537.36 (KHTML, like Gecko) Chrome/116.0.0.0 Safari/537.36" version="21.7.2" etag="2AmjyuF-gDsMrgXk0IVR" type="github">
  <diagram name="Page-1" id="bkkL6dyhui1s2GWMozvX">
    <mxGraphModel>
      <root>
        <mxCell id="0" />
        <mxCell id="1" parent="0" />
      </root>
    </mxGraphModel>
  </diagram>
</mxfile>
